<?xml version="1.0" encoding="UTF-8" standalone="no"?>
<!-- Created with Inkscape (http://www.inkscape.org/) -->

<svg
   xmlns:dc="http://purl.org/dc/elements/1.1/"
   xmlns:cc="http://creativecommons.org/ns#"
   xmlns:rdf="http://www.w3.org/1999/02/22-rdf-syntax-ns#"
   xmlns:svg="http://www.w3.org/2000/svg"
   xmlns="http://www.w3.org/2000/svg"
   xmlns:sodipodi="http://sodipodi.sourceforge.net/DTD/sodipodi-0.dtd"
   xmlns:inkscape="http://www.inkscape.org/namespaces/inkscape"
   width="210mm"
   height="297mm"
   viewBox="0 0 210 297"
   version="1.1"
   id="svg8"
   inkscape:version="0.48.5 r10040"
   sodipodi:docname="drawing.svg"
   inkscape:export-filename="C:\Users\MansB\Documents\BTH\År.1\DV1497 - Programmering i C++\Projekt\Project1\tex\base1Sheet.png"
   inkscape:export-xdpi="90"
   inkscape:export-ydpi="90">
  <defs
     id="defs2" />
  <sodipodi:namedview
     id="base"
     pagecolor="#ffffff"
     bordercolor="#666666"
     borderopacity="1.0"
     inkscape:pageopacity="0.0"
     inkscape:pageshadow="2"
     inkscape:zoom="2.8"
     inkscape:cx="316.44949"
     inkscape:cy="527.21565"
     inkscape:document-units="mm"
     inkscape:current-layer="layer1"
     showgrid="false"
     inkscape:window-width="1920"
     inkscape:window-height="1017"
     inkscape:window-x="-8"
     inkscape:window-y="-8"
     inkscape:window-maximized="1" />
  <metadata
     id="metadata5">
    <rdf:RDF>
      <cc:Work
         rdf:about="">
        <dc:format>image/svg+xml</dc:format>
        <dc:type
           rdf:resource="http://purl.org/dc/dcmitype/StillImage" />
        <dc:title></dc:title>
      </cc:Work>
    </rdf:RDF>
  </metadata>
  <g
     inkscape:label="Layer 1"
     inkscape:groupmode="layer"
     id="layer1">
    <ellipse
       style="fill:#c8ffc8;fill-opacity:1;stroke:#000000;stroke-width:0.34489440999999998;stroke-miterlimit:4;stroke-opacity:1;stroke-dasharray:none"
       id="path817"
       cx="39.6875"
       cy="151.47917"
       inkscape:export-xdpi="90"
       inkscape:export-ydpi="90"
       rx="13.056719"
       ry="13.05672"
       sodipodi:cx="39.6875"
       sodipodi:cy="151.47917"
       sodipodi:rx="13.056719"
       sodipodi:ry="13.05672"
       transform="matrix(1.0666668,0,0,1.0666667,-3.3966098e-6,-19.800009)"
       inkscape:export-filename="D:\Utveckling\DV1497\DV1497-Projekt\Project1\tex\base1Sheet.png" />
    <ellipse
       style="fill:#91ff91;fill-opacity:1;stroke:#000000;stroke-width:0.34489440999999998;stroke-miterlimit:4;stroke-opacity:1;stroke-dasharray:none"
       id="path817-2"
       cx="66.145836"
       cy="151.47917"
       inkscape:export-xdpi="90"
       inkscape:export-ydpi="90"
       rx="13.056719"
       ry="13.05672"
       sodipodi:cx="66.145836"
       sodipodi:cy="151.47917"
       sodipodi:rx="13.056719"
       sodipodi:ry="13.05672"
       transform="matrix(1.0666668,0,0,1.0666667,-6.4910289e-6,-19.800007)"
       inkscape:export-filename="D:\Utveckling\DV1497\DV1497-Projekt\Project1\tex\base1Sheet.png" />
    <path
       sodipodi:type="arc"
       style="fill:#ffffff;fill-opacity:1;stroke:none"
       id="path3752"
       sodipodi:cx="134.28572"
       sodipodi:cy="494.86218"
       sodipodi:rx="16.071428"
       sodipodi:ry="16.071428"
       d="m 150.35715,494.86218 a 16.071428,16.071428 0 1 1 -32.14286,0 16.071428,16.071428 0 1 1 32.14286,0 z"
       transform="matrix(0.26340742,0,0,0.26340742,6.96148,4.371848)"
       inkscape:export-filename="D:\Utveckling\DV1497\DV1497-Projekt\Project1\tex\base1Sheet.png"
       inkscape:export-xdpi="90"
       inkscape:export-ydpi="90" />
    <path
       sodipodi:type="arc"
       style="fill:#ffffff;fill-opacity:1;stroke:none"
       id="path3752-9"
       sodipodi:cx="134.28572"
       sodipodi:cy="494.86218"
       sodipodi:rx="16.071428"
       sodipodi:ry="16.071428"
       d="m 150.35715,494.86218 a 16.071428,16.071428 0 1 1 -32.14286,0 16.071428,16.071428 0 1 1 32.14286,0 z"
       transform="matrix(0.26340742,0,0,0.26340742,-0.0940781,11.427408)"
       inkscape:export-filename="D:\Utveckling\DV1497\DV1497-Projekt\Project1\tex\base1Sheet.png"
       inkscape:export-xdpi="90"
       inkscape:export-ydpi="90" />
    <path
       sodipodi:type="arc"
       style="fill:#ffffff;fill-opacity:1;stroke:none"
       id="path3752-1"
       sodipodi:cx="134.28572"
       sodipodi:cy="494.86218"
       sodipodi:rx="16.071428"
       sodipodi:ry="16.071428"
       d="m 150.35715,494.86218 a 16.071428,16.071428 0 1 1 -32.14286,0 16.071428,16.071428 0 1 1 32.14286,0 z"
       transform="matrix(0.26340742,0,0,0.26340742,14.017033,11.427408)"
       inkscape:export-filename="D:\Utveckling\DV1497\DV1497-Projekt\Project1\tex\base1Sheet.png"
       inkscape:export-xdpi="90"
       inkscape:export-ydpi="90" />
    <path
       sodipodi:type="arc"
       style="fill:#ffffff;fill-opacity:1;stroke:none"
       id="path3752-8"
       sodipodi:cx="134.28572"
       sodipodi:cy="494.86218"
       sodipodi:rx="16.071428"
       sodipodi:ry="16.071428"
       d="m 150.35715,494.86218 a 16.071428,16.071428 0 1 1 -32.14286,0 16.071428,16.071428 0 1 1 32.14286,0 z"
       transform="matrix(0.26340742,0,0,0.26340742,6.96148,18.482959)"
       inkscape:export-filename="D:\Utveckling\DV1497\DV1497-Projekt\Project1\tex\base1Sheet.png"
       inkscape:export-xdpi="90"
       inkscape:export-ydpi="90" />
    <g
       id="g3824"
       transform="translate(0.90714733,-2.5198347)"
       inkscape:export-filename="D:\Utveckling\DV1497\DV1497-Projekt\Project1\tex\base1Sheet.png"
       inkscape:export-xdpi="90"
       inkscape:export-ydpi="90">
      <path
         transform="matrix(0.26340742,0,0,0.26340742,34.27656,6.8916903)"
         d="m 150.35715,494.86218 c 0,8.87601 -7.19542,16.07143 -16.07143,16.07143 -8.876,0 -16.07143,-7.19542 -16.07143,-16.07143 0,-8.876 7.19543,-16.07143 16.07143,-16.07143 8.87601,0 16.07143,7.19543 16.07143,16.07143 z"
         sodipodi:ry="16.071428"
         sodipodi:rx="16.071428"
         sodipodi:cy="494.86218"
         sodipodi:cx="134.28572"
         id="path3752-19"
         style="fill:#ffffff;fill-opacity:1;stroke:none"
         sodipodi:type="arc" />
      <path
         transform="matrix(0.26340742,0,0,0.26340742,27.221003,13.947247)"
         d="m 150.35715,494.86218 c 0,8.87601 -7.19542,16.07143 -16.07143,16.07143 -8.876,0 -16.07143,-7.19542 -16.07143,-16.07143 0,-8.876 7.19543,-16.07143 16.07143,-16.07143 8.87601,0 16.07143,7.19543 16.07143,16.07143 z"
         sodipodi:ry="16.071428"
         sodipodi:rx="16.071428"
         sodipodi:cy="494.86218"
         sodipodi:cx="134.28572"
         id="path3752-9-5"
         style="fill:#ffffff;fill-opacity:1;stroke:none"
         sodipodi:type="arc" />
      <path
         transform="matrix(0.26340742,0,0,0.26340742,41.332113,13.947247)"
         d="m 150.35715,494.86218 c 0,8.87601 -7.19542,16.07143 -16.07143,16.07143 -8.876,0 -16.07143,-7.19542 -16.07143,-16.07143 0,-8.876 7.19543,-16.07143 16.07143,-16.07143 8.87601,0 16.07143,7.19543 16.07143,16.07143 z"
         sodipodi:ry="16.071428"
         sodipodi:rx="16.071428"
         sodipodi:cy="494.86218"
         sodipodi:cx="134.28572"
         id="path3752-1-3"
         style="fill:#ffffff;fill-opacity:1;stroke:none"
         sodipodi:type="arc" />
      <path
         transform="matrix(0.26340742,0,0,0.26340742,34.276559,21.0028)"
         d="m 150.35715,494.86218 c 0,8.87601 -7.19542,16.07143 -16.07143,16.07143 -8.876,0 -16.07143,-7.19542 -16.07143,-16.07143 0,-8.876 7.19543,-16.07143 16.07143,-16.07143 8.87601,0 16.07143,7.19543 16.07143,16.07143 z"
         sodipodi:ry="16.071428"
         sodipodi:rx="16.071428"
         sodipodi:cy="494.86218"
         sodipodi:cx="134.28572"
         id="path3752-8-2"
         style="fill:#ffffff;fill-opacity:1;stroke:none"
         sodipodi:type="arc" />
    </g>
    <path
       sodipodi:type="arc"
       style="fill:#ffffff;fill-opacity:1;stroke:none"
       id="path3752-1-1"
       sodipodi:cx="134.28572"
       sodipodi:cy="494.86218"
       sodipodi:rx="16.071428"
       sodipodi:ry="16.071428"
       d="m 150.35715,494.86218 a 16.071428,16.071428 0 1 1 -32.14286,0 16.071428,16.071428 0 1 1 32.14286,0 z"
       transform="matrix(0.26340742,0,0,0.26340742,-2.9163004,-11.654343)"
       inkscape:export-filename="D:\Utveckling\DV1497\DV1497-Projekt\Project1\tex\unlocks.png"
       inkscape:export-xdpi="90"
       inkscape:export-ydpi="90" />
    <text
       xml:space="preserve"
       style="font-size:5.64444447px;font-style:normal;font-variant:normal;font-weight:normal;font-stretch:normal;text-align:start;line-height:125%;letter-spacing:0px;word-spacing:0px;writing-mode:lr-tb;text-anchor:start;fill:#000000;fill-opacity:1;stroke:none;font-family:Sans;-inkscape-font-specification:Sans"
       x="30.108755"
       y="120.71623"
       id="text2993-7"
       sodipodi:linespacing="125%"
       inkscape:export-filename="D:\Utveckling\DV1497\DV1497-Projekt\Project1\tex\unlocks.png"
       inkscape:export-xdpi="90"
       inkscape:export-ydpi="90"><tspan
         sodipodi:role="line"
         id="tspan2995-4"
         x="30.108755"
         y="120.71623">M</tspan></text>
    <path
       sodipodi:type="arc"
       style="fill:#ffffff;fill-opacity:1;stroke:none"
       id="path3752-1-0"
       sodipodi:cx="134.28572"
       sodipodi:cy="494.86218"
       sodipodi:rx="16.071428"
       sodipodi:ry="16.071428"
       d="m 150.35715,494.86218 a 16.071428,16.071428 0 1 1 -32.14286,0 16.071428,16.071428 0 1 1 32.14286,0 z"
       transform="matrix(0.26340742,0,0,0.26340742,5.5503665,-11.654343)"
       inkscape:export-filename="D:\Utveckling\DV1497\DV1497-Projekt\Project1\tex\unlocks.png"
       inkscape:export-xdpi="90"
       inkscape:export-ydpi="90" />
    <text
       xml:space="preserve"
       style="font-size:5.64444447px;font-style:normal;font-variant:normal;font-weight:normal;font-stretch:normal;text-align:start;line-height:125%;letter-spacing:0px;word-spacing:0px;writing-mode:lr-tb;text-anchor:start;fill:#000000;fill-opacity:1;stroke:none;font-family:Sans;-inkscape-font-specification:Sans"
       x="38.983322"
       y="120.71623"
       id="text2993-9"
       sodipodi:linespacing="125%"
       inkscape:export-filename="D:\Utveckling\DV1497\DV1497-Projekt\Project1\tex\unlocks.png"
       inkscape:export-xdpi="90"
       inkscape:export-ydpi="90"><tspan
         sodipodi:role="line"
         id="tspan2995-48"
         x="38.983322"
         y="120.71623">B</tspan></text>
    <ellipse
       style="fill:#91ff91;fill-opacity:1;stroke:#000000;stroke-width:0.34489441;stroke-miterlimit:4;stroke-opacity:1;stroke-dasharray:none"
       id="path817-2-5"
       cx="66.145836"
       cy="151.47917"
       inkscape:export-xdpi="90"
       inkscape:export-ydpi="90"
       rx="13.056719"
       ry="13.05672"
       sodipodi:cx="66.145836"
       sodipodi:cy="151.47917"
       sodipodi:rx="13.056719"
       sodipodi:ry="13.05672"
       transform="matrix(1.0666668,0,0,1.0666667,28.222212,-19.800007)"
       inkscape:export-filename="D:\Utveckling\DV1497\DV1497-Projekt\Project1\tex\base1Sheet.png" />
    <path
       sodipodi:type="arc"
       style="fill:#ffffff;fill-opacity:1;stroke:#0000ff;stroke-opacity:1;stroke-width:2.14285709;stroke-miterlimit:4;stroke-dasharray:none"
       id="path3752-19-6"
       sodipodi:cx="134.28572"
       sodipodi:cy="494.86218"
       sodipodi:rx="16.071428"
       sodipodi:ry="16.071428"
       d="m 150.35715,494.86218 a 16.071428,16.071428 0 1 1 -32.14286,0 16.071428,16.071428 0 1 1 32.14286,0 z"
       transform="matrix(0.26340742,0,0,0.26340742,63.405927,4.3718556)"
       inkscape:export-filename="D:\Utveckling\DV1497\DV1497-Projekt\Project1\tex\base1Sheet.png"
       inkscape:export-xdpi="90"
       inkscape:export-ydpi="90" />
    <path
       sodipodi:type="arc"
       style="fill:#ffffff;fill-opacity:1;stroke:none"
       id="path3752-9-5-1"
       sodipodi:cx="134.28572"
       sodipodi:cy="494.86218"
       sodipodi:rx="16.071428"
       sodipodi:ry="16.071428"
       d="m 150.35715,494.86218 a 16.071428,16.071428 0 1 1 -32.14286,0 16.071428,16.071428 0 1 1 32.14286,0 z"
       transform="matrix(0.26340742,0,0,0.26340742,56.35037,11.427412)"
       inkscape:export-filename="D:\Utveckling\DV1497\DV1497-Projekt\Project1\tex\base1Sheet.png"
       inkscape:export-xdpi="90"
       inkscape:export-ydpi="90" />
    <path
       sodipodi:type="arc"
       style="fill:#ffffff;fill-opacity:1;stroke:none"
       id="path3752-1-3-2"
       sodipodi:cx="134.28572"
       sodipodi:cy="494.86218"
       sodipodi:rx="16.071428"
       sodipodi:ry="16.071428"
       d="m 150.35715,494.86218 a 16.071428,16.071428 0 1 1 -32.14286,0 16.071428,16.071428 0 1 1 32.14286,0 z"
       transform="matrix(0.26340742,0,0,0.26340742,70.46148,11.427412)"
       inkscape:export-filename="D:\Utveckling\DV1497\DV1497-Projekt\Project1\tex\base1Sheet.png"
       inkscape:export-xdpi="90"
       inkscape:export-ydpi="90" />
    <path
       sodipodi:type="arc"
       style="fill:#ffffff;fill-opacity:1;stroke:none"
       id="path3752-8-2-4"
       sodipodi:cx="134.28572"
       sodipodi:cy="494.86218"
       sodipodi:rx="16.071428"
       sodipodi:ry="16.071428"
       d="m 150.35715,494.86218 a 16.071428,16.071428 0 1 1 -32.14286,0 16.071428,16.071428 0 1 1 32.14286,0 z"
       transform="matrix(0.26340742,0,0,0.26340742,63.405926,18.482965)"
       inkscape:export-filename="D:\Utveckling\DV1497\DV1497-Projekt\Project1\tex\base1Sheet.png"
       inkscape:export-xdpi="90"
       inkscape:export-ydpi="90" />
    <ellipse
       style="fill:#91ff91;fill-opacity:1;stroke:#000000;stroke-width:0.34489441;stroke-miterlimit:4;stroke-opacity:1;stroke-dasharray:none"
       id="path817-2-2"
       cx="66.145836"
       cy="151.47917"
       inkscape:export-xdpi="90"
       inkscape:export-ydpi="90"
       rx="13.056719"
       ry="13.05672"
       sodipodi:cx="66.145836"
       sodipodi:cy="151.47917"
       sodipodi:rx="13.056719"
       sodipodi:ry="13.05672"
       transform="matrix(1.0666668,0,0,1.0666667,56.444435,-19.800007)"
       inkscape:export-filename="D:\Utveckling\DV1497\DV1497-Projekt\Project1\tex\base1Sheet.png" />
    <path
       sodipodi:type="arc"
       style="fill:#ffffff;fill-opacity:1;stroke:none"
       id="path3752-19-8"
       sodipodi:cx="134.28572"
       sodipodi:cy="494.86218"
       sodipodi:rx="16.071428"
       sodipodi:ry="16.071428"
       d="m 150.35715,494.86218 a 16.071428,16.071428 0 1 1 -32.14286,0 16.071428,16.071428 0 1 1 32.14286,0 z"
       transform="matrix(0.26340742,0,0,0.26340742,91.62815,4.3718556)"
       inkscape:export-filename="D:\Utveckling\DV1497\DV1497-Projekt\Project1\tex\base1Sheet.png"
       inkscape:export-xdpi="90"
       inkscape:export-ydpi="90" />
    <path
       sodipodi:type="arc"
       style="fill:#ffffff;fill-opacity:1;stroke:none"
       id="path3752-9-5-6"
       sodipodi:cx="134.28572"
       sodipodi:cy="494.86218"
       sodipodi:rx="16.071428"
       sodipodi:ry="16.071428"
       d="m 150.35715,494.86218 a 16.071428,16.071428 0 1 1 -32.14286,0 16.071428,16.071428 0 1 1 32.14286,0 z"
       transform="matrix(0.26340742,0,0,0.26340742,84.572593,11.427412)"
       inkscape:export-filename="D:\Utveckling\DV1497\DV1497-Projekt\Project1\tex\base1Sheet.png"
       inkscape:export-xdpi="90"
       inkscape:export-ydpi="90" />
    <path
       sodipodi:type="arc"
       style="fill:#ffffff;fill-opacity:1;stroke:#0000ff;stroke-opacity:1;stroke-width:2.14285709;stroke-miterlimit:4;stroke-dasharray:none"
       id="path3752-1-3-26"
       sodipodi:cx="134.28572"
       sodipodi:cy="494.86218"
       sodipodi:rx="16.071428"
       sodipodi:ry="16.071428"
       d="m 150.35715,494.86218 a 16.071428,16.071428 0 1 1 -32.14286,0 16.071428,16.071428 0 1 1 32.14286,0 z"
       transform="matrix(0.26340742,0,0,0.26340742,98.683703,11.427412)"
       inkscape:export-filename="D:\Utveckling\DV1497\DV1497-Projekt\Project1\tex\base1Sheet.png"
       inkscape:export-xdpi="90"
       inkscape:export-ydpi="90" />
    <path
       sodipodi:type="arc"
       style="fill:#ffffff;fill-opacity:1;stroke:none"
       id="path3752-8-2-5"
       sodipodi:cx="134.28572"
       sodipodi:cy="494.86218"
       sodipodi:rx="16.071428"
       sodipodi:ry="16.071428"
       d="m 150.35715,494.86218 a 16.071428,16.071428 0 1 1 -32.14286,0 16.071428,16.071428 0 1 1 32.14286,0 z"
       transform="matrix(0.26340742,0,0,0.26340742,91.628149,18.482965)"
       inkscape:export-filename="D:\Utveckling\DV1497\DV1497-Projekt\Project1\tex\base1Sheet.png"
       inkscape:export-xdpi="90"
       inkscape:export-ydpi="90" />
    <ellipse
       style="fill:#91ff91;fill-opacity:1;stroke:#000000;stroke-width:0.34489441;stroke-miterlimit:4;stroke-opacity:1;stroke-dasharray:none"
       id="path817-2-3"
       cx="66.145836"
       cy="151.47917"
       inkscape:export-xdpi="90"
       inkscape:export-ydpi="90"
       rx="13.056719"
       ry="13.05672"
       sodipodi:cx="66.145836"
       sodipodi:cy="151.47917"
       sodipodi:rx="13.056719"
       sodipodi:ry="13.05672"
       transform="matrix(1.0666668,0,0,1.0666667,84.666658,-19.800007)"
       inkscape:export-filename="D:\Utveckling\DV1497\DV1497-Projekt\Project1\tex\base1Sheet.png" />
    <path
       sodipodi:type="arc"
       style="fill:#ffffff;fill-opacity:1;stroke:none"
       id="path3752-19-2"
       sodipodi:cx="134.28572"
       sodipodi:cy="494.86218"
       sodipodi:rx="16.071428"
       sodipodi:ry="16.071428"
       d="m 150.35715,494.86218 a 16.071428,16.071428 0 1 1 -32.14286,0 16.071428,16.071428 0 1 1 32.14286,0 z"
       transform="matrix(0.26340742,0,0,0.26340742,119.85037,4.3718556)"
       inkscape:export-filename="D:\Utveckling\DV1497\DV1497-Projekt\Project1\tex\base1Sheet.png"
       inkscape:export-xdpi="90"
       inkscape:export-ydpi="90" />
    <path
       sodipodi:type="arc"
       style="fill:#ffffff;fill-opacity:1;stroke:none"
       id="path3752-9-5-4"
       sodipodi:cx="134.28572"
       sodipodi:cy="494.86218"
       sodipodi:rx="16.071428"
       sodipodi:ry="16.071428"
       d="m 150.35715,494.86218 a 16.071428,16.071428 0 1 1 -32.14286,0 16.071428,16.071428 0 1 1 32.14286,0 z"
       transform="matrix(0.26340742,0,0,0.26340742,112.79482,11.427412)"
       inkscape:export-filename="D:\Utveckling\DV1497\DV1497-Projekt\Project1\tex\base1Sheet.png"
       inkscape:export-xdpi="90"
       inkscape:export-ydpi="90" />
    <path
       sodipodi:type="arc"
       style="fill:#ffffff;fill-opacity:1;stroke:none"
       id="path3752-1-3-6"
       sodipodi:cx="134.28572"
       sodipodi:cy="494.86218"
       sodipodi:rx="16.071428"
       sodipodi:ry="16.071428"
       d="m 150.35715,494.86218 a 16.071428,16.071428 0 1 1 -32.14286,0 16.071428,16.071428 0 1 1 32.14286,0 z"
       transform="matrix(0.26340742,0,0,0.26340742,126.90593,11.427412)"
       inkscape:export-filename="D:\Utveckling\DV1497\DV1497-Projekt\Project1\tex\base1Sheet.png"
       inkscape:export-xdpi="90"
       inkscape:export-ydpi="90" />
    <path
       sodipodi:type="arc"
       style="fill:#ffffff;fill-opacity:1;stroke:#0000ff;stroke-width:2.14285709000000010;stroke-miterlimit:4;stroke-dasharray:none;stroke-opacity:1"
       id="path3752-8-2-1"
       sodipodi:cx="134.28572"
       sodipodi:cy="494.86218"
       sodipodi:rx="16.071428"
       sodipodi:ry="16.071428"
       d="m 150.35715,494.86218 a 16.071428,16.071428 0 1 1 -32.14286,0 16.071428,16.071428 0 1 1 32.14286,0 z"
       transform="matrix(0.26340742,0,0,0.26340742,119.85037,18.482965)"
       inkscape:export-filename="D:\Utveckling\DV1497\DV1497-Projekt\Project1\tex\base1Sheet.png"
       inkscape:export-xdpi="90"
       inkscape:export-ydpi="90" />
    <ellipse
       style="fill:#91ff91;fill-opacity:1;stroke:#000000;stroke-width:0.34489441;stroke-miterlimit:4;stroke-opacity:1;stroke-dasharray:none"
       id="path817-2-8"
       cx="66.145836"
       cy="151.47917"
       inkscape:export-xdpi="90"
       inkscape:export-ydpi="90"
       rx="13.056719"
       ry="13.05672"
       sodipodi:cx="66.145836"
       sodipodi:cy="151.47917"
       sodipodi:rx="13.056719"
       sodipodi:ry="13.05672"
       transform="matrix(1.0666668,0,0,1.0666667,112.88888,-19.800007)"
       inkscape:export-filename="D:\Utveckling\DV1497\DV1497-Projekt\Project1\tex\base1Sheet.png" />
    <path
       sodipodi:type="arc"
       style="fill:#ffffff;fill-opacity:1;stroke:none"
       id="path3752-19-1"
       sodipodi:cx="134.28572"
       sodipodi:cy="494.86218"
       sodipodi:rx="16.071428"
       sodipodi:ry="16.071428"
       d="m 150.35715,494.86218 a 16.071428,16.071428 0 1 1 -32.14286,0 16.071428,16.071428 0 1 1 32.14286,0 z"
       transform="matrix(0.26340742,0,0,0.26340742,148.0726,4.3718556)"
       inkscape:export-filename="D:\Utveckling\DV1497\DV1497-Projekt\Project1\tex\base1Sheet.png"
       inkscape:export-xdpi="90"
       inkscape:export-ydpi="90" />
    <path
       sodipodi:type="arc"
       style="fill:#ffffff;fill-opacity:1;stroke:#0000ff;stroke-opacity:1;stroke-width:2.14285709;stroke-miterlimit:4;stroke-dasharray:none"
       id="path3752-9-5-19"
       sodipodi:cx="134.28572"
       sodipodi:cy="494.86218"
       sodipodi:rx="16.071428"
       sodipodi:ry="16.071428"
       d="m 150.35715,494.86218 a 16.071428,16.071428 0 1 1 -32.14286,0 16.071428,16.071428 0 1 1 32.14286,0 z"
       transform="matrix(0.26340742,0,0,0.26340742,141.01704,11.427412)"
       inkscape:export-filename="D:\Utveckling\DV1497\DV1497-Projekt\Project1\tex\base1Sheet.png"
       inkscape:export-xdpi="90"
       inkscape:export-ydpi="90" />
    <path
       sodipodi:type="arc"
       style="fill:#ffffff;fill-opacity:1;stroke:none"
       id="path3752-1-3-7"
       sodipodi:cx="134.28572"
       sodipodi:cy="494.86218"
       sodipodi:rx="16.071428"
       sodipodi:ry="16.071428"
       d="m 150.35715,494.86218 a 16.071428,16.071428 0 1 1 -32.14286,0 16.071428,16.071428 0 1 1 32.14286,0 z"
       transform="matrix(0.26340742,0,0,0.26340742,155.12815,11.427412)"
       inkscape:export-filename="D:\Utveckling\DV1497\DV1497-Projekt\Project1\tex\base1Sheet.png"
       inkscape:export-xdpi="90"
       inkscape:export-ydpi="90" />
    <path
       sodipodi:type="arc"
       style="fill:#ffffff;fill-opacity:1;stroke:none"
       id="path3752-8-2-6"
       sodipodi:cx="134.28572"
       sodipodi:cy="494.86218"
       sodipodi:rx="16.071428"
       sodipodi:ry="16.071428"
       d="m 150.35715,494.86218 a 16.071428,16.071428 0 1 1 -32.14286,0 16.071428,16.071428 0 1 1 32.14286,0 z"
       transform="matrix(0.26340742,0,0,0.26340742,148.0726,18.482965)"
       inkscape:export-filename="D:\Utveckling\DV1497\DV1497-Projekt\Project1\tex\base1Sheet.png"
       inkscape:export-xdpi="90"
       inkscape:export-ydpi="90" />
  </g>
</svg>
